<?xml version="1.0" standalone="no"?><!-- Generator: Gravit.io --><svg xmlns="http://www.w3.org/2000/svg" xmlns:xlink="http://www.w3.org/1999/xlink" style="isolation:isolate" viewBox="0 0 256 256" width="256" height="256"><defs><clipPath id="_clipPath_rqoHuaKEQA7v4x77lhA7W1WcdyWLkMNw"><rect width="256" height="256"/></clipPath></defs><g clip-path="url(#_clipPath_rqoHuaKEQA7v4x77lhA7W1WcdyWLkMNw)"><rect x="-1.017" y="-1" width="258.517" height="258.5" transform="matrix(1,0,0,1,0,0)" fill="rgb(232,232,232)"/><path d=" M 253 95.943 L 127.755 151.175 L 33.747 109.958 L 127.755 95.943 L 127.279 91.039 L 26.245 106.409 L 2.51 95.943 L 127.755 40.71" fill="rgb(0,0,0)"/><path d=" M 49.633 123.934 L 127.755 159.621 L 204.924 123.934 L 204.924 189.413 C 204.924 189.413 139.434 234.899 49.633 189.413 L 49.633 123.934 L 49.633 123.934 Z  M 25.449 112.31 L 25.449 189.786 C 25.449 189.786 15.031 195.284 25.449 204.281 L 20.818 218.5 L 37.92 218.5 L 32.892 204.281 C 32.892 204.281 42.355 196.144 31.926 189.048 L 32.182 114.812 L 25.45 112.31 L 25.449 112.31 Z " fill="rgb(0,0,0)"/><path d=" M 120.106 93.535 C 120.106 90.562 122.502 88.148 125.453 88.148 C 128.404 88.148 130.8 90.562 130.8 93.535 C 130.8 96.509 128.404 98.923 125.453 98.923 C 122.502 98.923 120.106 96.509 120.106 93.535 Z " fill="rgb(232,232,232)"/></g></svg>